<svg width="40" height="40" viewBox="0 0 40 40" xmlns="http://www.w3.org/2000/svg" xmlns:xlink="http://www.w3.org/1999/xlink"><defs><path id="a" d="M21.36.4a2.78 2.78 0 0 1 3.4.55 2.78 2.78 0 0 0 2.59.84c1.26-.25 2.53.4 3.07 1.56.4.88 1.23 1.49 2.2 1.6a2.78 2.78 0 0 1 2.43 2.43c.11.97.72 1.8 1.6 2.2a2.78 2.78 0 0 1 1.56 3.07c-.19.95.13 1.93.84 2.59.95.87 1.17 2.28.54 3.4a2.78 2.78 0 0 0 0 2.72c.63 1.12.4 2.53-.54 3.4a2.78 2.78 0 0 0-.84 2.59 2.78 2.78 0 0 1-1.56 3.07 2.78 2.78 0 0 0-1.6 2.2 2.78 2.78 0 0 1-2.43 2.43c-.97.11-1.8.72-2.2 1.6a2.78 2.78 0 0 1-3.07 1.56 2.78 2.78 0 0 0-2.59.84 2.78 2.78 0 0 1-3.4.54 2.78 2.78 0 0 0-2.72 0c-1.12.63-2.53.4-3.4-.54a2.78 2.78 0 0 0-2.59-.84 2.78 2.78 0 0 1-3.07-1.56 2.78 2.78 0 0 0-2.2-1.6 2.78 2.78 0 0 1-2.43-2.43 2.78 2.78 0 0 0-1.6-2.2 2.78 2.78 0 0 1-1.56-3.07 2.78 2.78 0 0 0-.84-2.59 2.78 2.78 0 0 1-.54-3.4c.47-.85.47-1.87 0-2.72a2.78 2.78 0 0 1 .54-3.4 2.78 2.78 0 0 0 .84-2.59 2.78 2.78 0 0 1 1.56-3.07 2.78 2.78 0 0 0 1.6-2.2 2.78 2.78 0 0 1 2.43-2.43c.97-.11 1.8-.72 2.2-1.6a2.78 2.78 0 0 1 3.07-1.56c.95.19 1.93-.13 2.59-.84a2.78 2.78 0 0 1 3.4-.54c.84.47 1.88.47 2.72 0z"/><path id="c" d="M29.16 10.85c0 .16.02.33.05.5a2.78 2.78 0 0 1-1.56 3.07 2.78 2.78 0 0 0-1.6 2.2 2.78 2.78 0 0 1-2.44 2.43c-.96.11-1.79.72-2.2 1.6a2.78 2.78 0 0 1-3.06 1.56 2.78 2.78 0 0 0-2.59.84c-.45.49-1.03.78-1.65.87h-.79a2.77 2.77 0 0 1-.96-.33 2.78 2.78 0 0 0-1.47-.35L.51 12.85 19.1.8l10.05 10.05z"/><path id="e" d="M19.13 12.9s.86-.44.8-1.69a1.82 1.82 0 0 0-1.35-1.73s-.66-.25-2.45-.16c0 0-1.94.26-3.13-.42 0 0 .53-1.15 1.37-2.2.85-1.06 1.47-2.3 1.24-3.7-.24-1.43-.45-2.48-1.5-2.7-1.04-.23-1.58.3-1.71 1.07a4.96 4.96 0 0 1-.66 1.96c-.33.44-3.12 2.88-3.57 3.19-.44.3-1.54.83-2.75 2.47-.92 1.27-1.58 1.1-1.58 1.1H1.3C.7 10.1.2 10.6.2 11.2v9.56c0 .61.5 1.1 1.11 1.1h2.54v.04s4 .34 6.03.77c2.99.64 7.9.93 8.25-1.34 0 0 .27-1.14-.48-1.61 0 0 1.45.08 1.72-1.18.2-.98-.17-1.4-.55-1.95 0 0 1.27-.21 1.43-1.68.13-1.08-.44-1.59-1.1-2z"/></defs><g fill="none" fill-rule="evenodd"><mask id="b" fill="#fff"><use xlink:href="#a"/></mask><path d="M-4.95-4.95h49.9v49.9h-49.9v-49.9z" fill="#008FFF" mask="url(#b)"/><g transform="translate(9 16)"><mask id="d" fill="#fff"><use xlink:href="#c"/></mask><path d="M-4.5-4.2h39.52v33.12H-4.5V-4.2z" fill="#076DC1" mask="url(#d)"/></g><g transform="translate(9 7)"><mask id="f" fill="#fff"><use xlink:href="#e"/></mask><path d="M-4.81-4.93h30.18v33.46H-4.81V-4.93z" fill="#FAB900" mask="url(#f)"/></g></g></svg>