<svg height="40" viewBox="0 0 40 40" width="40" xmlns="http://www.w3.org/2000/svg" xmlns:xlink="http://www.w3.org/1999/xlink"><defs><path id="a" d="m24.66 22.2v8.33c0 .96-.35 1.83-.94 2.5l-6.89-8.41v-2.42z"/><filter id="b" height="137%" width="151.1%" x="-25.5%" y="-18.5%"><feGaussianBlur in="SourceAlpha" result="shadowBlurInner1" stdDeviation="1.5"/><feOffset dy="1" in="shadowBlurInner1" result="shadowOffsetInner1"/><feComposite in="shadowOffsetInner1" in2="SourceAlpha" k2="-1" k3="1" operator="arithmetic" result="shadowInnerInner1"/><feColorMatrix in="shadowInnerInner1" values="0 0 0 0 0 0 0 0 0 0 0 0 0 0 0 0 0 0 0.5 0"/></filter><mask id="c" fill="#fff"><path d="m20.06 39.82a19.87 19.87 0 1 1 0-39.75 19.87 19.87 0 0 1 0 39.75z" fill="#fff" fill-rule="evenodd"/></mask></defs><g fill="none" fill-rule="evenodd"><path d="m39.93 19.94a19.87 19.87 0 1 1 -39.74 0 19.87 19.87 0 0 1 39.74 0" fill="#ffcc31"/><path d="m32.95 30.4c.61.25 1.02.85 1.02 1.52v12.43h-26.44v-12.43c0-.67.4-1.27 1.02-1.51l8.75-3.51.16-.06h6.57l.17.06z" fill="#076dc1" mask="url(#c)"/><path d="m32.95 30.4c.61.25 1.02.85 1.02 1.52v12.43h-1.54l-14.35-17.51-.78-.96v-2.13h6.9v3.15z" fill="#076dc1" mask="url(#c)"/><path d="m24.2 23.75v7.34a3.34 3.34 0 0 1 -3.35 3.35h-.2a3.35 3.35 0 0 1 -3.35-3.35v-7.34z" fill="#fff7d6" mask="url(#c)"/><g mask="url(#c)"><use fill="#d6d3bd" xlink:href="#a"/><use fill="#000" filter="url(#b)" xlink:href="#a"/></g><path d="m19.73 24.78.32-.57h1.13l.32.57h.7l-.26-1.32v-.01h-2.65l-.27 1.33h.7" fill="#f2efdc" mask="url(#c)"/><path d="m28.6 17.85c0 1.08-.47 1.97-1.04 1.97a.57.57 0 0 1 -.24-.06c-.86 4.07-3.58 7.05-6.82 7.05h-.15c-3.16-.1-5.8-3.02-6.65-7h-.07c-.57 0-1.03-.88-1.03-1.96 0-.97.37-1.77.85-1.93.4-4.82 3.32-8.57 6.9-8.68h.15c3.65 0 6.65 3.78 7.06 8.65.57 0 1.03.88 1.03 1.96" fill="#fff7d6" mask="url(#c)"/><path d="m28.6 17.85c0 1.08-.47 1.97-1.04 1.97a.57.57 0 0 1 -.24-.06c-.86 4.07-3.58 7.05-6.82 7.05h-.15v-19.57h.15c3.65 0 6.65 3.78 7.06 8.65.57 0 1.03.88 1.03 1.96" fill="#e6ddb7" mask="url(#c)"/><g fill="#000"><path d="m28.57 10.13c-1.01-2.73-2.98-2.28-3.57-2.07a.16.16 0 0 1 -.2-.12c-.14-.64-.72-2.74-2.83-3.43-2.51-.81-4.51.96-5.63 1.71-1.1.76-3.2.71-3.88 3.25-.59 2.16.24 4.97 1.02 6.56.05.1.15.15.26.15h.53c.11 0 .2.07.25.17l.74 2.06c.02.04.07.03.07 0l.1-1.6c.02-.59.04-1.1.1-1.7a.8.8 0 0 0 -.03-.36c-.4-1.17-1.52-4.09.37-5 1.75-.83 2.55.59 3.7 1.15.1.05.23.03.35 0 .14-.02.27-.06.4-.1.12-.05.23-.1.33-.17.14-.1.28-.21.4-.28l.75-.45c.18-.16.36-.32.53-.5.13-.13.29-.16.43-.14.11.02.23.02.3-.06.18-.17.37-.27.64-.22 1.03.18 3.3 2.57 2.3 7.13l.07 1.74c0 .06.08.08.12.03l1.3-1.86s2.27-2.66 1.08-5.9" mask="url(#c)"/><path d="m24.31 8.87c-.05-.2-.1-.4-.17-.58-.42-1.2-4.29-2.46-7.62-.3-3.82 2.48-1.92 7.55-1.92 7.55l.86.59c-.04-2.33 1.18-3.54 1.18-3.54a3.41 3.41 0 0 0 1.95 2.45.13.13 0 0 0 .17-.1c.42-1.94 2.37-3.96 4.21-4.76.43.75.3 1.38.15 1.73-.02.04 0 .1.03.12.03.03 2.47.2 2.84 4.08 0 0 1.3-1.51 1.27-3.5-.03-1.6-2.1-3.17-2.95-3.74" mask="url(#c)"/><path d="m21.8 27.18c0 .24-.23.44-.5.44h-1.54c-.27 0-.5-.2-.5-.44v-1.69c0-.24.23-.44.5-.44h1.53c.28 0 .5.2.5.44v1.69" mask="url(#c)"/><path d="m23.13 28c.51 0 .4-.05 3.08-5.29h-1.6l-1.1 1.4a2.5 2.5 0 0 0 -1.85-.94h-2.09c-.69 0-1.5.44-1.85.94l-1.11-1.4h-1.59c2.68 5.24 2.57 5.3 3.08 5.3h5.03zm-1.47-3.86c.31 0 .6.15.72.4l.22.43-1.33 2.06h-1.31l-1.33-2.06.22-.43a.8.8 0 0 1 .72-.4z" mask="url(#c)"/></g></g></svg>