<svg height="39" viewBox="0 0 27 39" width="27" xmlns="http://www.w3.org/2000/svg" xmlns:xlink="http://www.w3.org/1999/xlink"><mask id="a" fill="#fff"><circle cx="20" cy="20" fill="#fff" fill-rule="evenodd" r="20"/></mask><mask id="b" fill="#fff"><path d="m0 0h27v30h-27z" fill="#fff" fill-rule="evenodd"/></mask><g fill="none" fill-rule="evenodd" transform="translate(-6 -1)"><path d="m23.2 20.75v7.34a3.34 3.34 0 0 1 -3.35 3.35h-.2a3.35 3.35 0 0 1 -3.35-3.35v-7.34z" fill="#008fff" mask="url(#a)"/><g mask="url(#a)"><g fill="#076dc1" mask="url(#b)" transform="translate(6 12)"><path d="m25.95 15.4c.61.25 1.02.85 1.02 1.52v12.43h-26.44v-12.43c0-.67.4-1.27 1.02-1.51l8.75-3.51.16-.06h6.57l.17.06z"/><path d="m21.6 2.85c0 1.08-.47 1.97-1.04 1.97a.57.57 0 0 1 -.24-.06c-.86 4.07-3.58 7.05-6.82 7.05h-.15c-3.16-.1-5.8-3.02-6.65-7h-.07c-.57 0-1.03-.88-1.03-1.96 0-.97.37-1.77.85-1.93.4-4.82 3.32-8.57 6.9-8.68h.15c3.65 0 6.65 3.78 7.06 8.65.57 0 1.03.88 1.03 1.96"/><path d="m21.6 2.85c0 1.08-.47 1.97-1.04 1.97a.57.57 0 0 1 -.24-.06c-.86 4.07-3.58 7.05-6.82 7.05h-.15v-19.57h.15c3.65 0 6.65 3.78 7.06 8.65.57 0 1.03.88 1.03 1.96"/></g></g><g fill="#ffcc31" mask="url(#a)"><path d="m17.04 1h2.02v2.44h.82v-2.44h2.08v4.88h.83v-2.98a9.35 9.35 0 0 1 6.16 8.66h1.23c.45 0 .82.35.82.8v.82c0 .45-.37.81-.82.81h-21.36a.82.82 0 0 1 -.82-.81v-.81c0-.46.37-.82.82-.82h20.13l-.06-.81h-18.83a9.35 9.35 0 0 1 6.15-7.87v3h.83z"/></g></g></svg>